<svg version="1" viewBox="0 0 2.5 2.5" width="20" height="20" xmlns="http://www.w3.org/2000/svg"><path d="M2.41 1.428V1.34a.09.09 0 1 0-.178 0v.09h-.09v-.09a.09.09 0 1 0-.178 0v.09h-.089v-.09a.09.09 0 1 0-.179 0v.09h-.089v-.09a.09.09 0 1 0-.178 0v.09h-.09v-.09a.09.09 0 1 0-.178 0v.09h-.09v-.09a.09.09 0 1 0-.178 0v.09h-.09v-.09a.09.09 0 1 0-.178 0v.09h-.09v-.09a.09.09 0 1 0-.178 0v.09h-.09v-.09a.09.09 0 1 0-.178 0v.09A.09.09 0 0 0 0 1.517v.714a.09.09 0 0 0 .09.09v.088a.09.09 0 1 0 .178 0v-.089h.09v.09a.09.09 0 1 0 .178 0v-.09h.089v.09a.09.09 0 1 0 .179 0v-.09h.089v.09a.09.09 0 1 0 .178 0v-.09h.09v.09a.09.09 0 1 0 .178 0v-.09h.09v.09a.09.09 0 1 0 .178 0v-.09h.09v.09a.09.09 0 1 0 .178 0v-.09h.09v.09a.09.09 0 1 0 .178 0v-.09h.09v.09a.09.09 0 1 0 .178 0v-.09a.09.09 0 0 0 .089-.09v-.713a.09.09 0 0 0-.09-.09zM.18 2.143v-.536H2.32v.536zM.714.357v.804a.09.09 0 1 0 .179 0V.446h.499l.215.216v.499a.09.09 0 1 0 .179 0V.625A.09.09 0 0 0 1.76.562L1.492.294a.09.09 0 0 0-.063-.026H.804a.09.09 0 0 0-.09.09z" fill="#ffffff" class="color000 svgShape"/><path d="M.536 1.071A.09.09 0 0 0 .625.982V.179h.625a.09.09 0 1 0 0-.179H.536a.09.09 0 0 0-.09.09v.892a.09.09 0 0 0 .09.09zm.893-.357H1.07a.09.09 0 1 0 0 .179h.358a.09.09 0 1 0 0-.179zm0 .268H1.07a.09.09 0 1 0 0 .179h.358a.09.09 0 1 0 0-.179z" fill="#ffffff" class="color000 svgShape"/></svg>