<svg height="256" viewBox="0 0 32 32" width="256" xmlns="http://www.w3.org/2000/svg"><path d="m29 18v-1a1 1 0 1 0 -2 0v1h-1v-1a1 1 0 1 0 -2 0v1h-1v-1a1 1 0 1 0 -2 0v1h-1v-1a1 1 0 1 0 -2 0v1h-1v-1a1 1 0 1 0 -2 0v1h-1v-1a1 1 0 1 0 -2 0v1h-1v-1a1 1 0 1 0 -2 0v1h-1v-1a1 1 0 1 0 -2 0v1h-1v-1a1 1 0 1 0 -2 0v1a1 1 0 0 0 -1 1v8a1 1 0 0 0 1 1v1a1 1 0 1 0 2 0v-1h1v1a1 1 0 1 0 2 0v-1h1v1a1 1 0 1 0 2 0v-1h1v1a1 1 0 1 0 2 0v-1h1v1a1 1 0 1 0 2 0v-1h1v1a1 1 0 1 0 2 0v-1h1v1a1 1 0 1 0 2 0v-1h1v1a1 1 0 1 0 2 0v-1h1v1a1 1 0 1 0 2 0v-1a1 1 0 0 0 1-1v-8a1 1 0 0 0 -1-1zm-25 8v-6h24v6zm6-20v9a1 1 0 1 0 2 0v-8h5.586l2.414 2.414v5.586a1 1 0 1 0 2 0v-6a1 1 0 0 0 -.293-.707l-3-3a1 1 0 0 0 -.707-.293h-7a1 1 0 0 0 -1 1z"/><path d="m8 14a1 1 0 0 0 1-1v-9h7a1 1 0 1 0 0-2h-8a1 1 0 0 0 -1 1v10a1 1 0 0 0 1 1zm10-4h-4a1 1 0 1 0 0 2h4a1 1 0 1 0 0-2zm0 3h-4a1 1 0 1 0 0 2h4a1 1 0 1 0 0-2z"/></svg>